<svg xmlns="http://www.w3.org/2000/svg" width="1600" height="1000" viewBox="0 0 1600 1000" fill="none">
  <defs>
    <linearGradient id="bg" x1="0" y1="0" x2="1" y2="1">
      <stop offset="0" stop-color="#12172a"/>
      <stop offset="0.45" stop-color="#0b1020"/>
      <stop offset="1" stop-color="#070a14"/>
    </linearGradient>
    <linearGradient id="accent" x1="0" y1="0" x2="1" y2="1">
      <stop offset="0" stop-color="#7c5cff" stop-opacity="0.9"/>
      <stop offset="1" stop-color="#2fe1ff" stop-opacity="0.7"/>
    </linearGradient>
  </defs>
  <rect width="1600" height="1000" fill="url(#bg)"/>
  <rect x="120" y="100" width="1360" height="800" rx="40" fill="#0e1322" stroke="#2b3550" stroke-width="2"/>
  <rect x="170" y="160" width="520" height="600" rx="24" fill="#10192b" stroke="#2b3550" stroke-width="1"/>
  <rect x="740" y="160" width="690" height="180" rx="24" fill="#111b30" stroke="#2b3550" stroke-width="1"/>
  <rect x="740" y="370" width="690" height="190" rx="24" fill="#111b30" stroke="#2b3550" stroke-width="1"/>
  <rect x="740" y="590" width="690" height="170" rx="24" fill="#111b30" stroke="#2b3550" stroke-width="1"/>
  <rect x="200" y="210" width="460" height="60" rx="16" fill="#141e36"/>
  <rect x="200" y="300" width="420" height="28" rx="14" fill="#17233f"/>
  <rect x="200" y="350" width="380" height="28" rx="14" fill="#17233f"/>
  <rect x="200" y="400" width="320" height="28" rx="14" fill="#17233f"/>
  <circle cx="370" cy="560" r="90" fill="url(#accent)"/>
  <rect x="470" y="520" width="170" height="24" rx="12" fill="#1b2947"/>
  <rect x="470" y="560" width="200" height="24" rx="12" fill="#1b2947"/>
  <rect x="470" y="600" width="160" height="24" rx="12" fill="#1b2947"/>
  <rect x="780" y="210" width="220" height="26" rx="13" fill="#1b2947"/>
  <rect x="780" y="250" width="320" height="18" rx="9" fill="#1b2947"/>
  <rect x="780" y="410" width="300" height="24" rx="12" fill="#1b2947"/>
  <rect x="780" y="450" width="360" height="18" rx="9" fill="#1b2947"/>
  <rect x="780" y="630" width="260" height="24" rx="12" fill="#1b2947"/>
  <rect x="780" y="670" width="340" height="18" rx="9" fill="#1b2947"/>
</svg>
